<svg width="32" height="32" viewBox="0 0 32 32" fill="none" xmlns="http://www.w3.org/2000/svg">
<path d="M24.6116 28.7129L8.52809 21.2978C8.52809 21.2978 8.36528 21.3973 8.39288 19.3003L0 15.4302V22.6916C0 23.0734 0.0814039 23.4515 0.245591 23.8006C0.652611 24.6663 1.7219 26.1408 4.52274 27.4892L13.1598 31.5094C13.1598 31.5094 15.8406 32.5831 18.7643 31.5094L24.6129 28.7129H24.6116Z" fill="#4F4F4F"/>
<path d="M7.38843 3.27407L23.4719 10.6892C23.4719 10.6892 23.6347 10.5897 23.6071 12.6867L32 16.5568V9.29541C32 8.91356 31.9186 8.5355 31.7544 8.18642C31.3474 7.32064 30.2781 5.84618 27.4772 4.49774L18.8415 0.477632C18.8415 0.477632 16.1607 -0.596078 13.2371 0.477632L7.38843 3.27407Z" fill="#4F4F4F"/>
<path d="M0.104858 12.9627L21.3816 22.5857C21.3816 22.5857 22.1391 23.1843 21.9225 24.7798L27.4648 27.372C27.4648 27.372 30.6286 26.8238 31.7903 23.4086V19.1453L10.2969 9.34834C10.2969 9.34834 10.1341 9.27399 10.1341 7.25385L4.37649 4.68552C4.37649 4.68552 0.267666 6.33137 0.104858 8.42586V12.9627Z" fill="#F9B101"/>
</svg>
