<svg width="256" height="256" viewBox="0 0 256 256" fill="none" xmlns="http://www.w3.org/2000/svg">
<path d="M196.833 229.634L68.2041 170.331C68.2041 170.331 66.9021 171.127 67.1228 154.356L0 123.404V181.478C0 184.532 0.651034 187.555 1.96414 190.347C5.21931 197.271 13.771 209.063 36.171 219.848L105.247 251.999C105.247 251.999 126.687 260.586 150.069 251.999L196.844 229.634H196.833Z" fill="#4F4F4F"/>
<path d="M59.0897 26.1845L187.719 85.4878C187.719 85.4878 189.021 84.6916 188.8 101.463L255.923 132.414V74.3408C255.923 71.2869 255.272 68.2633 253.959 65.4715C250.703 58.5474 242.152 46.7552 219.752 35.971L150.687 3.81981C150.687 3.81981 129.247 -4.76728 105.865 3.81981L59.0897 26.1845Z" fill="#4F4F4F"/>
<path d="M0.838623 103.67L171.001 180.631C171.001 180.631 177.059 185.419 175.327 198.178L219.652 218.91C219.652 218.91 244.954 214.526 254.246 187.213V153.116L82.3503 74.7641C82.3503 74.7641 81.0483 74.1694 81.0483 58.0132L35.0014 37.4727C35.0014 37.4727 2.14069 50.6356 0.838623 67.3864V103.67Z" fill="#F9B101"/>
</svg>
